<svg xmlns="http://www.w3.org/2000/svg" width="2000" height="1200" viewBox="0 0 2000 1200"> <defs> <linearGradient id="bg" x1="0" y1="0" x2="0.3" y2="1"> <stop offset="0" stop-color="#101826"/><stop offset="0.55" stop-color="#22304a"/><stop offset="1" stop-color="#34466a"/> </linearGradient> <linearGradient id="glass" x1="0" y1="0" x2="1" y2="1"> <stop offset="0" stop-color="#dfe9f5" stop-opacity="0.9"/> <stop offset="0.5" stop-color="#34466a" stop-opacity="0.6"/> <stop offset="1" stop-color="#101826" stop-opacity="0.95"/> </linearGradient> <linearGradient id="fade" x1="0" y1="0" x2="0" y2="1"> <stop offset="0" stop-color="#101826" stop-opacity="0"/><stop offset="1" stop-color="#101826" stop-opacity="0.92"/> </linearGradient> <linearGradient id="sheen" x1="0" y1="0" x2="1" y2="1"> <stop offset="0" stop-color="#ffffff" stop-opacity="0"/> <stop offset="0.45" stop-color="#ffffff" stop-opacity="0.18"/> <stop offset="0.55" stop-color="#ffffff" stop-opacity="0"/> </linearGradient> </defs> <rect width="2000" height="1200" fill="url(#bg)"/> <g><rect x="3" y="3" width="175.8181818181818" height="144" fill="url(#glass)" opacity="0.25"/><rect x="184.8181818181818" y="3" width="175.8181818181818" height="144" fill="url(#glass)" opacity="0.22"/><rect x="366.6363636363636" y="3" width="175.8181818181818" height="144" fill="url(#glass)" opacity="0.29"/><rect x="548.4545454545455" y="3" width="175.8181818181818" height="144" fill="url(#glass)" opacity="0.22"/><rect x="730.2727272727273" y="3" width="175.8181818181818" height="144" fill="url(#glass)" opacity="0.27"/><rect x="912.090909090909" y="3" width="175.8181818181818" height="144" fill="url(#glass)" opacity="0.44"/><rect x="1093.909090909091" y="3" width="175.8181818181818" height="144" fill="url(#glass)" opacity="0.49"/><rect x="1275.7272727272727" y="3" width="175.8181818181818" height="144" fill="url(#glass)" opacity="0.31"/><rect x="1457.5454545454545" y="3" width="175.8181818181818" height="144" fill="url(#glass)" opacity="0.46"/><rect x="1639.3636363636363" y="3" width="175.8181818181818" height="144" fill="url(#glass)" opacity="0.42"/><rect x="1821.181818181818" y="3" width="175.8181818181818" height="144" fill="url(#glass)" opacity="0.46"/><rect x="3" y="153" width="175.8181818181818" height="144" fill="url(#glass)" opacity="0.20"/><rect x="184.8181818181818" y="153" width="175.8181818181818" height="144" fill="url(#glass)" opacity="0.35"/><rect x="366.6363636363636" y="153" width="175.8181818181818" height="144" fill="url(#glass)" opacity="0.31"/><rect x="548.4545454545455" y="153" width="175.8181818181818" height="144" fill="url(#glass)" opacity="0.27"/><rect x="730.2727272727273" y="153" width="175.8181818181818" height="144" fill="url(#glass)" opacity="0.39"/><rect x="912.090909090909" y="153" width="175.8181818181818" height="144" fill="url(#glass)" opacity="0.48"/><rect x="1093.909090909091" y="153" width="175.8181818181818" height="144" fill="url(#glass)" opacity="0.27"/><rect x="1275.7272727272727" y="153" width="175.8181818181818" height="144" fill="url(#glass)" opacity="0.40"/><rect x="1457.5454545454545" y="153" width="175.8181818181818" height="144" fill="url(#glass)" opacity="0.31"/><rect x="1639.3636363636363" y="153" width="175.8181818181818" height="144" fill="url(#glass)" opacity="0.55"/><rect x="1821.181818181818" y="153" width="175.8181818181818" height="144" fill="url(#glass)" opacity="0.48"/><rect x="3" y="303" width="175.8181818181818" height="144" fill="url(#glass)" opacity="0.17"/><rect x="184.8181818181818" y="303" width="175.8181818181818" height="144" fill="url(#glass)" opacity="0.22"/><rect x="366.6363636363636" y="303" width="175.8181818181818" height="144" fill="url(#glass)" opacity="0.22"/><rect x="548.4545454545455" y="303" width="175.8181818181818" height="144" fill="url(#glass)" opacity="0.39"/><rect x="730.2727272727273" y="303" width="175.8181818181818" height="144" fill="url(#glass)" opacity="0.38"/><rect x="912.090909090909" y="303" width="175.8181818181818" height="144" fill="url(#glass)" opacity="0.25"/><rect x="1093.909090909091" y="303" width="175.8181818181818" height="144" fill="url(#glass)" opacity="0.35"/><rect x="1275.7272727272727" y="303" width="175.8181818181818" height="144" fill="url(#glass)" opacity="0.39"/><rect x="1457.5454545454545" y="303" width="175.8181818181818" height="144" fill="url(#glass)" opacity="0.41"/><rect x="1639.3636363636363" y="303" width="175.8181818181818" height="144" fill="url(#glass)" opacity="0.39"/><rect x="1821.181818181818" y="303" width="175.8181818181818" height="144" fill="url(#glass)" opacity="0.35"/><rect x="3" y="453" width="175.8181818181818" height="144" fill="url(#glass)" opacity="0.30"/><rect x="184.8181818181818" y="453" width="175.8181818181818" height="144" fill="url(#glass)" opacity="0.37"/><rect x="366.6363636363636" y="453" width="175.8181818181818" height="144" fill="url(#glass)" opacity="0.37"/><rect x="548.4545454545455" y="453" width="175.8181818181818" height="144" fill="url(#glass)" opacity="0.28"/><rect x="730.2727272727273" y="453" width="175.8181818181818" height="144" fill="url(#glass)" opacity="0.38"/><rect x="912.090909090909" y="453" width="175.8181818181818" height="144" fill="url(#glass)" opacity="0.29"/><rect x="1093.909090909091" y="453" width="175.8181818181818" height="144" fill="url(#glass)" opacity="0.46"/><rect x="1275.7272727272727" y="453" width="175.8181818181818" height="144" fill="url(#glass)" opacity="0.29"/><rect x="1457.5454545454545" y="453" width="175.8181818181818" height="144" fill="url(#glass)" opacity="0.48"/><rect x="1639.3636363636363" y="453" width="175.8181818181818" height="144" fill="url(#glass)" opacity="0.43"/><rect x="1821.181818181818" y="453" width="175.8181818181818" height="144" fill="url(#glass)" opacity="0.46"/><rect x="3" y="603" width="175.8181818181818" height="144" fill="url(#glass)" opacity="0.28"/><rect x="184.8181818181818" y="603" width="175.8181818181818" height="144" fill="url(#glass)" opacity="0.31"/><rect x="366.6363636363636" y="603" width="175.8181818181818" height="144" fill="url(#glass)" opacity="0.22"/><rect x="548.4545454545455" y="603" width="175.8181818181818" height="144" fill="url(#glass)" opacity="0.31"/><rect x="730.2727272727273" y="603" width="175.8181818181818" height="144" fill="url(#glass)" opacity="0.44"/><rect x="912.090909090909" y="603" width="175.8181818181818" height="144" fill="url(#glass)" opacity="0.44"/><rect x="1093.909090909091" y="603" width="175.8181818181818" height="144" fill="url(#glass)" opacity="0.41"/><rect x="1275.7272727272727" y="603" width="175.8181818181818" height="144" fill="url(#glass)" opacity="0.44"/><rect x="1457.5454545454545" y="603" width="175.8181818181818" height="144" fill="url(#glass)" opacity="0.48"/><rect x="1639.3636363636363" y="603" width="175.8181818181818" height="144" fill="url(#glass)" opacity="0.45"/><rect x="1821.181818181818" y="603" width="175.8181818181818" height="144" fill="url(#glass)" opacity="0.39"/><rect x="3" y="753" width="175.8181818181818" height="144" fill="url(#glass)" opacity="0.18"/><rect x="184.8181818181818" y="753" width="175.8181818181818" height="144" fill="url(#glass)" opacity="0.26"/><rect x="366.6363636363636" y="753" width="175.8181818181818" height="144" fill="url(#glass)" opacity="0.17"/><rect x="548.4545454545455" y="753" width="175.8181818181818" height="144" fill="url(#glass)" opacity="0.40"/><rect x="730.2727272727273" y="753" width="175.8181818181818" height="144" fill="url(#glass)" opacity="0.22"/><rect x="912.090909090909" y="753" width="175.8181818181818" height="144" fill="url(#glass)" opacity="0.37"/><rect x="1093.909090909091" y="753" width="175.8181818181818" height="144" fill="url(#glass)" opacity="0.50"/><rect x="1275.7272727272727" y="753" width="175.8181818181818" height="144" fill="url(#glass)" opacity="0.41"/><rect x="1457.5454545454545" y="753" width="175.8181818181818" height="144" fill="url(#glass)" opacity="0.35"/><rect x="1639.3636363636363" y="753" width="175.8181818181818" height="144" fill="url(#glass)" opacity="0.57"/><rect x="1821.181818181818" y="753" width="175.8181818181818" height="144" fill="url(#glass)" opacity="0.46"/><rect x="3" y="903" width="175.8181818181818" height="144" fill="url(#glass)" opacity="0.21"/><rect x="184.8181818181818" y="903" width="175.8181818181818" height="144" fill="url(#glass)" opacity="0.23"/><rect x="366.6363636363636" y="903" width="175.8181818181818" height="144" fill="url(#glass)" opacity="0.20"/><rect x="548.4545454545455" y="903" width="175.8181818181818" height="144" fill="url(#glass)" opacity="0.30"/><rect x="730.2727272727273" y="903" width="175.8181818181818" height="144" fill="url(#glass)" opacity="0.32"/><rect x="912.090909090909" y="903" width="175.8181818181818" height="144" fill="url(#glass)" opacity="0.25"/><rect x="1093.909090909091" y="903" width="175.8181818181818" height="144" fill="url(#glass)" opacity="0.48"/><rect x="1275.7272727272727" y="903" width="175.8181818181818" height="144" fill="url(#glass)" opacity="0.46"/><rect x="1457.5454545454545" y="903" width="175.8181818181818" height="144" fill="url(#glass)" opacity="0.46"/><rect x="1639.3636363636363" y="903" width="175.8181818181818" height="144" fill="url(#glass)" opacity="0.36"/><rect x="1821.181818181818" y="903" width="175.8181818181818" height="144" fill="url(#glass)" opacity="0.49"/><rect x="3" y="1053" width="175.8181818181818" height="144" fill="url(#glass)" opacity="0.18"/><rect x="184.8181818181818" y="1053" width="175.8181818181818" height="144" fill="url(#glass)" opacity="0.29"/><rect x="366.6363636363636" y="1053" width="175.8181818181818" height="144" fill="url(#glass)" opacity="0.27"/><rect x="548.4545454545455" y="1053" width="175.8181818181818" height="144" fill="url(#glass)" opacity="0.27"/><rect x="730.2727272727273" y="1053" width="175.8181818181818" height="144" fill="url(#glass)" opacity="0.37"/><rect x="912.090909090909" y="1053" width="175.8181818181818" height="144" fill="url(#glass)" opacity="0.40"/><rect x="1093.909090909091" y="1053" width="175.8181818181818" height="144" fill="url(#glass)" opacity="0.34"/><rect x="1275.7272727272727" y="1053" width="175.8181818181818" height="144" fill="url(#glass)" opacity="0.45"/><rect x="1457.5454545454545" y="1053" width="175.8181818181818" height="144" fill="url(#glass)" opacity="0.49"/><rect x="1639.3636363636363" y="1053" width="175.8181818181818" height="144" fill="url(#glass)" opacity="0.47"/><rect x="1821.181818181818" y="1053" width="175.8181818181818" height="144" fill="url(#glass)" opacity="0.40"/></g> <g><rect x="-3" y="0" width="6" height="1200" fill="#C8A04F" opacity="0.16"/><rect x="178.8181818181818" y="0" width="6" height="1200" fill="#C8A04F" opacity="0.16"/><rect x="360.6363636363636" y="0" width="6" height="1200" fill="#C8A04F" opacity="0.16"/><rect x="542.4545454545455" y="0" width="6" height="1200" fill="#C8A04F" opacity="0.16"/><rect x="724.2727272727273" y="0" width="6" height="1200" fill="#C8A04F" opacity="0.16"/><rect x="906.090909090909" y="0" width="6" height="1200" fill="#C8A04F" opacity="0.16"/><rect x="1087.909090909091" y="0" width="6" height="1200" fill="#C8A04F" opacity="0.16"/><rect x="1269.7272727272727" y="0" width="6" height="1200" fill="#C8A04F" opacity="0.16"/><rect x="1451.5454545454545" y="0" width="6" height="1200" fill="#C8A04F" opacity="0.16"/><rect x="1633.3636363636363" y="0" width="6" height="1200" fill="#C8A04F" opacity="0.16"/><rect x="1815.181818181818" y="0" width="6" height="1200" fill="#C8A04F" opacity="0.16"/><rect x="1997" y="0" width="6" height="1200" fill="#C8A04F" opacity="0.16"/><rect x="0" y="-3" width="2000" height="6" fill="#C8A04F" opacity="0.16"/><rect x="0" y="147" width="2000" height="6" fill="#C8A04F" opacity="0.16"/><rect x="0" y="297" width="2000" height="6" fill="#C8A04F" opacity="0.16"/><rect x="0" y="447" width="2000" height="6" fill="#C8A04F" opacity="0.16"/><rect x="0" y="597" width="2000" height="6" fill="#C8A04F" opacity="0.16"/><rect x="0" y="747" width="2000" height="6" fill="#C8A04F" opacity="0.16"/><rect x="0" y="897" width="2000" height="6" fill="#C8A04F" opacity="0.16"/><rect x="0" y="1047" width="2000" height="6" fill="#C8A04F" opacity="0.16"/><rect x="0" y="1197" width="2000" height="6" fill="#C8A04F" opacity="0.16"/></g> <polygon points="0,0 900,0 300,1200 0,1200" fill="url(#sheen)"/> <polygon points="1400,0 1700,0 1100,1200 800,1200" fill="url(#sheen)" opacity="0.6"/> </svg>