<svg xmlns="http://www.w3.org/2000/svg" width="1200" height="800" viewBox="0 0 1200 800"> <defs> <linearGradient id="bg" x1="0" y1="0" x2="0.3" y2="1"> <stop offset="0" stop-color="#0B1F3A"/><stop offset="0.55" stop-color="#16365f"/><stop offset="1" stop-color="#1f4a7a"/> </linearGradient> <linearGradient id="glass" x1="0" y1="0" x2="1" y2="1"> <stop offset="0" stop-color="#dfe9f5" stop-opacity="0.9"/> <stop offset="0.5" stop-color="#1f4a7a" stop-opacity="0.6"/> <stop offset="1" stop-color="#0B1F3A" stop-opacity="0.95"/> </linearGradient> <linearGradient id="fade" x1="0" y1="0" x2="0" y2="1"> <stop offset="0" stop-color="#0B1F3A" stop-opacity="0"/><stop offset="1" stop-color="#0B1F3A" stop-opacity="0.92"/> </linearGradient> <linearGradient id="sheen" x1="0" y1="0" x2="1" y2="1"> <stop offset="0" stop-color="#ffffff" stop-opacity="0"/> <stop offset="0.45" stop-color="#ffffff" stop-opacity="0.18"/> <stop offset="0.55" stop-color="#ffffff" stop-opacity="0"/> </linearGradient> </defs> <rect width="1200" height="800" fill="url(#bg)"/> <g><rect x="3" y="3" width="94" height="94" fill="url(#glass)" opacity="0.22"/><rect x="103" y="3" width="94" height="94" fill="url(#glass)" opacity="0.37"/><rect x="203" y="3" width="94" height="94" fill="url(#glass)" opacity="0.28"/><rect x="303" y="3" width="94" height="94" fill="url(#glass)" opacity="0.28"/><rect x="403" y="3" width="94" height="94" fill="url(#glass)" opacity="0.35"/><rect x="503" y="3" width="94" height="94" fill="url(#glass)" opacity="0.38"/><rect x="603" y="3" width="94" height="94" fill="url(#glass)" opacity="0.43"/><rect x="703" y="3" width="94" height="94" fill="url(#glass)" opacity="0.36"/><rect x="803" y="3" width="94" height="94" fill="url(#glass)" opacity="0.38"/><rect x="903" y="3" width="94" height="94" fill="url(#glass)" opacity="0.52"/><rect x="1003" y="3" width="94" height="94" fill="url(#glass)" opacity="0.53"/><rect x="1103" y="3" width="94" height="94" fill="url(#glass)" opacity="0.41"/><rect x="3" y="103" width="94" height="94" fill="url(#glass)" opacity="0.17"/><rect x="103" y="103" width="94" height="94" fill="url(#glass)" opacity="0.19"/><rect x="203" y="103" width="94" height="94" fill="url(#glass)" opacity="0.30"/><rect x="303" y="103" width="94" height="94" fill="url(#glass)" opacity="0.21"/><rect x="403" y="103" width="94" height="94" fill="url(#glass)" opacity="0.21"/><rect x="503" y="103" width="94" height="94" fill="url(#glass)" opacity="0.41"/><rect x="603" y="103" width="94" height="94" fill="url(#glass)" opacity="0.26"/><rect x="703" y="103" width="94" height="94" fill="url(#glass)" opacity="0.43"/><rect x="803" y="103" width="94" height="94" fill="url(#glass)" opacity="0.34"/><rect x="903" y="103" width="94" height="94" fill="url(#glass)" opacity="0.42"/><rect x="1003" y="103" width="94" height="94" fill="url(#glass)" opacity="0.47"/><rect x="1103" y="103" width="94" height="94" fill="url(#glass)" opacity="0.46"/><rect x="3" y="203" width="94" height="94" fill="url(#glass)" opacity="0.30"/><rect x="103" y="203" width="94" height="94" fill="url(#glass)" opacity="0.17"/><rect x="203" y="203" width="94" height="94" fill="url(#glass)" opacity="0.36"/><rect x="303" y="203" width="94" height="94" fill="url(#glass)" opacity="0.24"/><rect x="403" y="203" width="94" height="94" fill="url(#glass)" opacity="0.39"/><rect x="503" y="203" width="94" height="94" fill="url(#glass)" opacity="0.40"/><rect x="603" y="203" width="94" height="94" fill="url(#glass)" opacity="0.36"/><rect x="703" y="203" width="94" height="94" fill="url(#glass)" opacity="0.49"/><rect x="803" y="203" width="94" height="94" fill="url(#glass)" opacity="0.43"/><rect x="903" y="203" width="94" height="94" fill="url(#glass)" opacity="0.51"/><rect x="1003" y="203" width="94" height="94" fill="url(#glass)" opacity="0.56"/><rect x="1103" y="203" width="94" height="94" fill="url(#glass)" opacity="0.56"/><rect x="3" y="303" width="94" height="94" fill="url(#glass)" opacity="0.28"/><rect x="103" y="303" width="94" height="94" fill="url(#glass)" opacity="0.22"/><rect x="203" y="303" width="94" height="94" fill="url(#glass)" opacity="0.39"/><rect x="303" y="303" width="94" height="94" fill="url(#glass)" opacity="0.30"/><rect x="403" y="303" width="94" height="94" fill="url(#glass)" opacity="0.32"/><rect x="503" y="303" width="94" height="94" fill="url(#glass)" opacity="0.28"/><rect x="603" y="303" width="94" height="94" fill="url(#glass)" opacity="0.40"/><rect x="703" y="303" width="94" height="94" fill="url(#glass)" opacity="0.45"/><rect x="803" y="303" width="94" height="94" fill="url(#glass)" opacity="0.32"/><rect x="903" y="303" width="94" height="94" fill="url(#glass)" opacity="0.44"/><rect x="1003" y="303" width="94" height="94" fill="url(#glass)" opacity="0.49"/><rect x="1103" y="303" width="94" height="94" fill="url(#glass)" opacity="0.38"/><rect x="3" y="403" width="94" height="94" fill="url(#glass)" opacity="0.29"/><rect x="103" y="403" width="94" height="94" fill="url(#glass)" opacity="0.27"/><rect x="203" y="403" width="94" height="94" fill="url(#glass)" opacity="0.30"/><rect x="303" y="403" width="94" height="94" fill="url(#glass)" opacity="0.28"/><rect x="403" y="403" width="94" height="94" fill="url(#glass)" opacity="0.40"/><rect x="503" y="403" width="94" height="94" fill="url(#glass)" opacity="0.45"/><rect x="603" y="403" width="94" height="94" fill="url(#glass)" opacity="0.29"/><rect x="703" y="403" width="94" height="94" fill="url(#glass)" opacity="0.49"/><rect x="803" y="403" width="94" height="94" fill="url(#glass)" opacity="0.42"/><rect x="903" y="403" width="94" height="94" fill="url(#glass)" opacity="0.40"/><rect x="1003" y="403" width="94" height="94" fill="url(#glass)" opacity="0.40"/><rect x="1103" y="403" width="94" height="94" fill="url(#glass)" opacity="0.57"/><rect x="3" y="503" width="94" height="94" fill="url(#glass)" opacity="0.23"/><rect x="103" y="503" width="94" height="94" fill="url(#glass)" opacity="0.22"/><rect x="203" y="503" width="94" height="94" fill="url(#glass)" opacity="0.26"/><rect x="303" y="503" width="94" height="94" fill="url(#glass)" opacity="0.37"/><rect x="403" y="503" width="94" height="94" fill="url(#glass)" opacity="0.31"/><rect x="503" y="503" width="94" height="94" fill="url(#glass)" opacity="0.33"/><rect x="603" y="503" width="94" height="94" fill="url(#glass)" opacity="0.44"/><rect x="703" y="503" width="94" height="94" fill="url(#glass)" opacity="0.27"/><rect x="803" y="503" width="94" height="94" fill="url(#glass)" opacity="0.40"/><rect x="903" y="503" width="94" height="94" fill="url(#glass)" opacity="0.54"/><rect x="1003" y="503" width="94" height="94" fill="url(#glass)" opacity="0.47"/><rect x="1103" y="503" width="94" height="94" fill="url(#glass)" opacity="0.56"/><rect x="3" y="603" width="94" height="94" fill="url(#glass)" opacity="0.27"/><rect x="103" y="603" width="94" height="94" fill="url(#glass)" opacity="0.24"/><rect x="203" y="603" width="94" height="94" fill="url(#glass)" opacity="0.18"/><rect x="303" y="603" width="94" height="94" fill="url(#glass)" opacity="0.23"/><rect x="403" y="603" width="94" height="94" fill="url(#glass)" opacity="0.21"/><rect x="503" y="603" width="94" height="94" fill="url(#glass)" opacity="0.34"/><rect x="603" y="603" width="94" height="94" fill="url(#glass)" opacity="0.28"/><rect x="703" y="603" width="94" height="94" fill="url(#glass)" opacity="0.46"/><rect x="803" y="603" width="94" height="94" fill="url(#glass)" opacity="0.42"/><rect x="903" y="603" width="94" height="94" fill="url(#glass)" opacity="0.53"/><rect x="1003" y="603" width="94" height="94" fill="url(#glass)" opacity="0.36"/><rect x="1103" y="603" width="94" height="94" fill="url(#glass)" opacity="0.51"/><rect x="3" y="703" width="94" height="94" fill="url(#glass)" opacity="0.32"/><rect x="103" y="703" width="94" height="94" fill="url(#glass)" opacity="0.26"/><rect x="203" y="703" width="94" height="94" fill="url(#glass)" opacity="0.22"/><rect x="303" y="703" width="94" height="94" fill="url(#glass)" opacity="0.27"/><rect x="403" y="703" width="94" height="94" fill="url(#glass)" opacity="0.26"/><rect x="503" y="703" width="94" height="94" fill="url(#glass)" opacity="0.40"/><rect x="603" y="703" width="94" height="94" fill="url(#glass)" opacity="0.48"/><rect x="703" y="703" width="94" height="94" fill="url(#glass)" opacity="0.47"/><rect x="803" y="703" width="94" height="94" fill="url(#glass)" opacity="0.41"/><rect x="903" y="703" width="94" height="94" fill="url(#glass)" opacity="0.54"/><rect x="1003" y="703" width="94" height="94" fill="url(#glass)" opacity="0.50"/><rect x="1103" y="703" width="94" height="94" fill="url(#glass)" opacity="0.60"/></g> <g><rect x="-3" y="0" width="6" height="800" fill="#C8A04F" opacity="0.16"/><rect x="97" y="0" width="6" height="800" fill="#C8A04F" opacity="0.16"/><rect x="197" y="0" width="6" height="800" fill="#C8A04F" opacity="0.16"/><rect x="297" y="0" width="6" height="800" fill="#C8A04F" opacity="0.16"/><rect x="397" y="0" width="6" height="800" fill="#C8A04F" opacity="0.16"/><rect x="497" y="0" width="6" height="800" fill="#C8A04F" opacity="0.16"/><rect x="597" y="0" width="6" height="800" fill="#C8A04F" opacity="0.16"/><rect x="697" y="0" width="6" height="800" fill="#C8A04F" opacity="0.16"/><rect x="797" y="0" width="6" height="800" fill="#C8A04F" opacity="0.16"/><rect x="897" y="0" width="6" height="800" fill="#C8A04F" opacity="0.16"/><rect x="997" y="0" width="6" height="800" fill="#C8A04F" opacity="0.16"/><rect x="1097" y="0" width="6" height="800" fill="#C8A04F" opacity="0.16"/><rect x="1197" y="0" width="6" height="800" fill="#C8A04F" opacity="0.16"/><rect x="0" y="-3" width="1200" height="6" fill="#C8A04F" opacity="0.16"/><rect x="0" y="97" width="1200" height="6" fill="#C8A04F" opacity="0.16"/><rect x="0" y="197" width="1200" height="6" fill="#C8A04F" opacity="0.16"/><rect x="0" y="297" width="1200" height="6" fill="#C8A04F" opacity="0.16"/><rect x="0" y="397" width="1200" height="6" fill="#C8A04F" opacity="0.16"/><rect x="0" y="497" width="1200" height="6" fill="#C8A04F" opacity="0.16"/><rect x="0" y="597" width="1200" height="6" fill="#C8A04F" opacity="0.16"/><rect x="0" y="697" width="1200" height="6" fill="#C8A04F" opacity="0.16"/><rect x="0" y="797" width="1200" height="6" fill="#C8A04F" opacity="0.16"/></g> <polygon points="0,0 540,0 180,800 0,800" fill="url(#sheen)"/> <polygon points="840,0 1020,0 660,800 480,800" fill="url(#sheen)" opacity="0.6"/> <rect x="0" y="620" width="1200" height="180" fill="url(#fade)"/> <text x="60" y="730" font-family="Georgia, serif" font-size="64" font-weight="700" fill="#ffffff">Structural Glazing</text> <rect x="60" y="650" width="70" height="6" fill="#C8A04F"/>
</svg>