<svg xmlns="http://www.w3.org/2000/svg" width="1200" height="800" viewBox="0 0 1200 800"> <defs> <linearGradient id="bg" x1="0" y1="0" x2="0.3" y2="1"> <stop offset="0" stop-color="#241a12"/><stop offset="0.55" stop-color="#42301d"/><stop offset="1" stop-color="#5f4527"/> </linearGradient> <linearGradient id="glass" x1="0" y1="0" x2="1" y2="1"> <stop offset="0" stop-color="#dfe9f5" stop-opacity="0.9"/> <stop offset="0.5" stop-color="#5f4527" stop-opacity="0.6"/> <stop offset="1" stop-color="#241a12" stop-opacity="0.95"/> </linearGradient> <linearGradient id="fade" x1="0" y1="0" x2="0" y2="1"> <stop offset="0" stop-color="#241a12" stop-opacity="0"/><stop offset="1" stop-color="#241a12" stop-opacity="0.92"/> </linearGradient> <linearGradient id="sheen" x1="0" y1="0" x2="1" y2="1"> <stop offset="0" stop-color="#ffffff" stop-opacity="0"/> <stop offset="0.45" stop-color="#ffffff" stop-opacity="0.18"/> <stop offset="0.55" stop-color="#ffffff" stop-opacity="0"/> </linearGradient> </defs> <rect width="1200" height="800" fill="url(#bg)"/> <g><rect x="3" y="3" width="194" height="82.88888888888889" fill="url(#glass)" opacity="0.18"/><rect x="203" y="3" width="194" height="82.88888888888889" fill="url(#glass)" opacity="0.34"/><rect x="403" y="3" width="194" height="82.88888888888889" fill="url(#glass)" opacity="0.37"/><rect x="603" y="3" width="194" height="82.88888888888889" fill="url(#glass)" opacity="0.33"/><rect x="803" y="3" width="194" height="82.88888888888889" fill="url(#glass)" opacity="0.44"/><rect x="1003" y="3" width="194" height="82.88888888888889" fill="url(#glass)" opacity="0.36"/><rect x="3" y="91.88888888888889" width="194" height="82.88888888888889" fill="url(#glass)" opacity="0.27"/><rect x="203" y="91.88888888888889" width="194" height="82.88888888888889" fill="url(#glass)" opacity="0.21"/><rect x="403" y="91.88888888888889" width="194" height="82.88888888888889" fill="url(#glass)" opacity="0.30"/><rect x="603" y="91.88888888888889" width="194" height="82.88888888888889" fill="url(#glass)" opacity="0.36"/><rect x="803" y="91.88888888888889" width="194" height="82.88888888888889" fill="url(#glass)" opacity="0.49"/><rect x="1003" y="91.88888888888889" width="194" height="82.88888888888889" fill="url(#glass)" opacity="0.53"/><rect x="3" y="180.77777777777777" width="194" height="82.88888888888889" fill="url(#glass)" opacity="0.19"/><rect x="203" y="180.77777777777777" width="194" height="82.88888888888889" fill="url(#glass)" opacity="0.39"/><rect x="403" y="180.77777777777777" width="194" height="82.88888888888889" fill="url(#glass)" opacity="0.41"/><rect x="603" y="180.77777777777777" width="194" height="82.88888888888889" fill="url(#glass)" opacity="0.38"/><rect x="803" y="180.77777777777777" width="194" height="82.88888888888889" fill="url(#glass)" opacity="0.50"/><rect x="1003" y="180.77777777777777" width="194" height="82.88888888888889" fill="url(#glass)" opacity="0.56"/><rect x="3" y="269.66666666666663" width="194" height="82.88888888888889" fill="url(#glass)" opacity="0.28"/><rect x="203" y="269.66666666666663" width="194" height="82.88888888888889" fill="url(#glass)" opacity="0.20"/><rect x="403" y="269.66666666666663" width="194" height="82.88888888888889" fill="url(#glass)" opacity="0.31"/><rect x="603" y="269.66666666666663" width="194" height="82.88888888888889" fill="url(#glass)" opacity="0.49"/><rect x="803" y="269.66666666666663" width="194" height="82.88888888888889" fill="url(#glass)" opacity="0.32"/><rect x="1003" y="269.66666666666663" width="194" height="82.88888888888889" fill="url(#glass)" opacity="0.52"/><rect x="3" y="358.55555555555554" width="194" height="82.88888888888889" fill="url(#glass)" opacity="0.37"/><rect x="203" y="358.55555555555554" width="194" height="82.88888888888889" fill="url(#glass)" opacity="0.23"/><rect x="403" y="358.55555555555554" width="194" height="82.88888888888889" fill="url(#glass)" opacity="0.31"/><rect x="603" y="358.55555555555554" width="194" height="82.88888888888889" fill="url(#glass)" opacity="0.26"/><rect x="803" y="358.55555555555554" width="194" height="82.88888888888889" fill="url(#glass)" opacity="0.53"/><rect x="1003" y="358.55555555555554" width="194" height="82.88888888888889" fill="url(#glass)" opacity="0.52"/><rect x="3" y="447.44444444444446" width="194" height="82.88888888888889" fill="url(#glass)" opacity="0.28"/><rect x="203" y="447.44444444444446" width="194" height="82.88888888888889" fill="url(#glass)" opacity="0.32"/><rect x="403" y="447.44444444444446" width="194" height="82.88888888888889" fill="url(#glass)" opacity="0.25"/><rect x="603" y="447.44444444444446" width="194" height="82.88888888888889" fill="url(#glass)" opacity="0.28"/><rect x="803" y="447.44444444444446" width="194" height="82.88888888888889" fill="url(#glass)" opacity="0.45"/><rect x="1003" y="447.44444444444446" width="194" height="82.88888888888889" fill="url(#glass)" opacity="0.37"/><rect x="3" y="536.3333333333333" width="194" height="82.88888888888889" fill="url(#glass)" opacity="0.37"/><rect x="203" y="536.3333333333333" width="194" height="82.88888888888889" fill="url(#glass)" opacity="0.29"/><rect x="403" y="536.3333333333333" width="194" height="82.88888888888889" fill="url(#glass)" opacity="0.22"/><rect x="603" y="536.3333333333333" width="194" height="82.88888888888889" fill="url(#glass)" opacity="0.38"/><rect x="803" y="536.3333333333333" width="194" height="82.88888888888889" fill="url(#glass)" opacity="0.43"/><rect x="1003" y="536.3333333333333" width="194" height="82.88888888888889" fill="url(#glass)" opacity="0.41"/><rect x="3" y="625.2222222222222" width="194" height="82.88888888888889" fill="url(#glass)" opacity="0.19"/><rect x="203" y="625.2222222222222" width="194" height="82.88888888888889" fill="url(#glass)" opacity="0.23"/><rect x="403" y="625.2222222222222" width="194" height="82.88888888888889" fill="url(#glass)" opacity="0.30"/><rect x="603" y="625.2222222222222" width="194" height="82.88888888888889" fill="url(#glass)" opacity="0.40"/><rect x="803" y="625.2222222222222" width="194" height="82.88888888888889" fill="url(#glass)" opacity="0.29"/><rect x="1003" y="625.2222222222222" width="194" height="82.88888888888889" fill="url(#glass)" opacity="0.48"/><rect x="3" y="714.1111111111111" width="194" height="82.88888888888889" fill="url(#glass)" opacity="0.35"/><rect x="203" y="714.1111111111111" width="194" height="82.88888888888889" fill="url(#glass)" opacity="0.22"/><rect x="403" y="714.1111111111111" width="194" height="82.88888888888889" fill="url(#glass)" opacity="0.32"/><rect x="603" y="714.1111111111111" width="194" height="82.88888888888889" fill="url(#glass)" opacity="0.41"/><rect x="803" y="714.1111111111111" width="194" height="82.88888888888889" fill="url(#glass)" opacity="0.38"/><rect x="1003" y="714.1111111111111" width="194" height="82.88888888888889" fill="url(#glass)" opacity="0.41"/></g> <g><rect x="-3" y="0" width="6" height="800" fill="#E4C77E" opacity="0.16"/><rect x="197" y="0" width="6" height="800" fill="#E4C77E" opacity="0.16"/><rect x="397" y="0" width="6" height="800" fill="#E4C77E" opacity="0.16"/><rect x="597" y="0" width="6" height="800" fill="#E4C77E" opacity="0.16"/><rect x="797" y="0" width="6" height="800" fill="#E4C77E" opacity="0.16"/><rect x="997" y="0" width="6" height="800" fill="#E4C77E" opacity="0.16"/><rect x="1197" y="0" width="6" height="800" fill="#E4C77E" opacity="0.16"/><rect x="0" y="-3" width="1200" height="6" fill="#E4C77E" opacity="0.16"/><rect x="0" y="85.88888888888889" width="1200" height="6" fill="#E4C77E" opacity="0.16"/><rect x="0" y="174.77777777777777" width="1200" height="6" fill="#E4C77E" opacity="0.16"/><rect x="0" y="263.66666666666663" width="1200" height="6" fill="#E4C77E" opacity="0.16"/><rect x="0" y="352.55555555555554" width="1200" height="6" fill="#E4C77E" opacity="0.16"/><rect x="0" y="441.44444444444446" width="1200" height="6" fill="#E4C77E" opacity="0.16"/><rect x="0" y="530.3333333333333" width="1200" height="6" fill="#E4C77E" opacity="0.16"/><rect x="0" y="619.2222222222222" width="1200" height="6" fill="#E4C77E" opacity="0.16"/><rect x="0" y="708.1111111111111" width="1200" height="6" fill="#E4C77E" opacity="0.16"/><rect x="0" y="797" width="1200" height="6" fill="#E4C77E" opacity="0.16"/></g> <polygon points="0,0 540,0 180,800 0,800" fill="url(#sheen)"/> <polygon points="840,0 1020,0 660,800 480,800" fill="url(#sheen)" opacity="0.6"/> <rect x="0" y="620" width="1200" height="180" fill="url(#fade)"/> <text x="60" y="730" font-family="Georgia, serif" font-size="64" font-weight="700" fill="#ffffff">ACP Cladding</text> <rect x="60" y="650" width="70" height="6" fill="#E4C77E"/>
</svg>