<svg xmlns="http://www.w3.org/2000/svg" width="1200" height="800" viewBox="0 0 1200 800"> <defs> <linearGradient id="bg" x1="0" y1="0" x2="0.3" y2="1"> <stop offset="0" stop-color="#0a2629"/><stop offset="0.55" stop-color="#114442"/><stop offset="1" stop-color="#1a6359"/> </linearGradient> <linearGradient id="glass" x1="0" y1="0" x2="1" y2="1"> <stop offset="0" stop-color="#dfe9f5" stop-opacity="0.9"/> <stop offset="0.5" stop-color="#1a6359" stop-opacity="0.6"/> <stop offset="1" stop-color="#0a2629" stop-opacity="0.95"/> </linearGradient> <linearGradient id="fade" x1="0" y1="0" x2="0" y2="1"> <stop offset="0" stop-color="#0a2629" stop-opacity="0"/><stop offset="1" stop-color="#0a2629" stop-opacity="0.92"/> </linearGradient> <linearGradient id="sheen" x1="0" y1="0" x2="1" y2="1"> <stop offset="0" stop-color="#ffffff" stop-opacity="0"/> <stop offset="0.45" stop-color="#ffffff" stop-opacity="0.18"/> <stop offset="0.55" stop-color="#ffffff" stop-opacity="0"/> </linearGradient> </defs> <rect width="1200" height="800" fill="url(#bg)"/> <g><rect x="3" y="3" width="127.33333333333334" height="154" fill="url(#glass)" opacity="0.26"/><rect x="136.33333333333334" y="3" width="127.33333333333334" height="154" fill="url(#glass)" opacity="0.18"/><rect x="269.6666666666667" y="3" width="127.33333333333334" height="154" fill="url(#glass)" opacity="0.24"/><rect x="403" y="3" width="127.33333333333334" height="154" fill="url(#glass)" opacity="0.31"/><rect x="536.3333333333334" y="3" width="127.33333333333334" height="154" fill="url(#glass)" opacity="0.36"/><rect x="669.6666666666667" y="3" width="127.33333333333334" height="154" fill="url(#glass)" opacity="0.28"/><rect x="803" y="3" width="127.33333333333334" height="154" fill="url(#glass)" opacity="0.51"/><rect x="936.3333333333334" y="3" width="127.33333333333334" height="154" fill="url(#glass)" opacity="0.46"/><rect x="1069.6666666666667" y="3" width="127.33333333333334" height="154" fill="url(#glass)" opacity="0.44"/><rect x="3" y="163" width="127.33333333333334" height="154" fill="url(#glass)" opacity="0.19"/><rect x="136.33333333333334" y="163" width="127.33333333333334" height="154" fill="url(#glass)" opacity="0.34"/><rect x="269.6666666666667" y="163" width="127.33333333333334" height="154" fill="url(#glass)" opacity="0.34"/><rect x="403" y="163" width="127.33333333333334" height="154" fill="url(#glass)" opacity="0.22"/><rect x="536.3333333333334" y="163" width="127.33333333333334" height="154" fill="url(#glass)" opacity="0.36"/><rect x="669.6666666666667" y="163" width="127.33333333333334" height="154" fill="url(#glass)" opacity="0.32"/><rect x="803" y="163" width="127.33333333333334" height="154" fill="url(#glass)" opacity="0.45"/><rect x="936.3333333333334" y="163" width="127.33333333333334" height="154" fill="url(#glass)" opacity="0.35"/><rect x="1069.6666666666667" y="163" width="127.33333333333334" height="154" fill="url(#glass)" opacity="0.48"/><rect x="3" y="323" width="127.33333333333334" height="154" fill="url(#glass)" opacity="0.24"/><rect x="136.33333333333334" y="323" width="127.33333333333334" height="154" fill="url(#glass)" opacity="0.19"/><rect x="269.6666666666667" y="323" width="127.33333333333334" height="154" fill="url(#glass)" opacity="0.19"/><rect x="403" y="323" width="127.33333333333334" height="154" fill="url(#glass)" opacity="0.44"/><rect x="536.3333333333334" y="323" width="127.33333333333334" height="154" fill="url(#glass)" opacity="0.47"/><rect x="669.6666666666667" y="323" width="127.33333333333334" height="154" fill="url(#glass)" opacity="0.29"/><rect x="803" y="323" width="127.33333333333334" height="154" fill="url(#glass)" opacity="0.40"/><rect x="936.3333333333334" y="323" width="127.33333333333334" height="154" fill="url(#glass)" opacity="0.55"/><rect x="1069.6666666666667" y="323" width="127.33333333333334" height="154" fill="url(#glass)" opacity="0.39"/><rect x="3" y="483" width="127.33333333333334" height="154" fill="url(#glass)" opacity="0.22"/><rect x="136.33333333333334" y="483" width="127.33333333333334" height="154" fill="url(#glass)" opacity="0.29"/><rect x="269.6666666666667" y="483" width="127.33333333333334" height="154" fill="url(#glass)" opacity="0.34"/><rect x="403" y="483" width="127.33333333333334" height="154" fill="url(#glass)" opacity="0.27"/><rect x="536.3333333333334" y="483" width="127.33333333333334" height="154" fill="url(#glass)" opacity="0.27"/><rect x="669.6666666666667" y="483" width="127.33333333333334" height="154" fill="url(#glass)" opacity="0.51"/><rect x="803" y="483" width="127.33333333333334" height="154" fill="url(#glass)" opacity="0.40"/><rect x="936.3333333333334" y="483" width="127.33333333333334" height="154" fill="url(#glass)" opacity="0.37"/><rect x="1069.6666666666667" y="483" width="127.33333333333334" height="154" fill="url(#glass)" opacity="0.48"/><rect x="3" y="643" width="127.33333333333334" height="154" fill="url(#glass)" opacity="0.20"/><rect x="136.33333333333334" y="643" width="127.33333333333334" height="154" fill="url(#glass)" opacity="0.19"/><rect x="269.6666666666667" y="643" width="127.33333333333334" height="154" fill="url(#glass)" opacity="0.37"/><rect x="403" y="643" width="127.33333333333334" height="154" fill="url(#glass)" opacity="0.29"/><rect x="536.3333333333334" y="643" width="127.33333333333334" height="154" fill="url(#glass)" opacity="0.32"/><rect x="669.6666666666667" y="643" width="127.33333333333334" height="154" fill="url(#glass)" opacity="0.28"/><rect x="803" y="643" width="127.33333333333334" height="154" fill="url(#glass)" opacity="0.52"/><rect x="936.3333333333334" y="643" width="127.33333333333334" height="154" fill="url(#glass)" opacity="0.37"/><rect x="1069.6666666666667" y="643" width="127.33333333333334" height="154" fill="url(#glass)" opacity="0.56"/></g> <g><rect x="-3" y="0" width="6" height="800" fill="#69c0ae" opacity="0.16"/><rect x="130.33333333333334" y="0" width="6" height="800" fill="#69c0ae" opacity="0.16"/><rect x="263.6666666666667" y="0" width="6" height="800" fill="#69c0ae" opacity="0.16"/><rect x="397" y="0" width="6" height="800" fill="#69c0ae" opacity="0.16"/><rect x="530.3333333333334" y="0" width="6" height="800" fill="#69c0ae" opacity="0.16"/><rect x="663.6666666666667" y="0" width="6" height="800" fill="#69c0ae" opacity="0.16"/><rect x="797" y="0" width="6" height="800" fill="#69c0ae" opacity="0.16"/><rect x="930.3333333333334" y="0" width="6" height="800" fill="#69c0ae" opacity="0.16"/><rect x="1063.6666666666667" y="0" width="6" height="800" fill="#69c0ae" opacity="0.16"/><rect x="1197" y="0" width="6" height="800" fill="#69c0ae" opacity="0.16"/><rect x="0" y="-3" width="1200" height="6" fill="#69c0ae" opacity="0.16"/><rect x="0" y="157" width="1200" height="6" fill="#69c0ae" opacity="0.16"/><rect x="0" y="317" width="1200" height="6" fill="#69c0ae" opacity="0.16"/><rect x="0" y="477" width="1200" height="6" fill="#69c0ae" opacity="0.16"/><rect x="0" y="637" width="1200" height="6" fill="#69c0ae" opacity="0.16"/><rect x="0" y="797" width="1200" height="6" fill="#69c0ae" opacity="0.16"/></g> <polygon points="0,0 540,0 180,800 0,800" fill="url(#sheen)"/> <polygon points="840,0 1020,0 660,800 480,800" fill="url(#sheen)" opacity="0.6"/> <rect x="0" y="620" width="1200" height="180" fill="url(#fade)"/> <text x="60" y="730" font-family="Georgia, serif" font-size="64" font-weight="700" fill="#ffffff">Toughened Glass</text> <rect x="60" y="650" width="70" height="6" fill="#69c0ae"/>
</svg>